<svg width="80.9" height="74.4" viewBox="0 0 80.9 74.4" xmlns="http://www.w3.org/2000/svg"><g id="svgGroup" stroke-linecap="round" fill-rule="evenodd" font-size="9pt" stroke="#ffffff" stroke-width="0" fill="#ffffff" style="stroke:#ffffff;stroke-width:0;fill:#ffffff"><path d="M 61.618 69.795 A 6.651 6.651 0 0 0 63.1 68.6 A 7.636 7.636 0 0 1 60.84 67.133 Q 59.697 66.067 58.869 64.471 A 15.513 15.513 0 0 1 57.75 61.6 Q 56.2 56.2 56.15 49.7 Q 56.1 43.2 55.9 36.9 A 37.053 37.053 0 0 0 55.813 35.263 Q 55.415 30.036 53.55 26.35 A 9.879 9.879 0 0 0 53.034 25.447 Q 51.747 23.455 49.749 22.649 A 8.081 8.081 0 0 0 46.7 22.1 A 13.863 13.863 0 0 0 46.468 22.102 A 11.593 11.593 0 0 0 40.4 23.85 A 16.389 16.389 0 0 0 38.92 24.89 A 13.293 13.293 0 0 0 36 28.05 A 17.667 17.667 0 0 0 35.127 29.553 Q 34.581 30.603 34.073 31.866 A 38.969 38.969 0 0 0 33.1 34.6 Q 32.288 37.163 31.749 39.315 A 48.946 48.946 0 0 0 31.2 41.75 A 117.313 117.313 0 0 0 31.14 42.058 Q 30.563 45.034 29.85 49.5 A 269.77 269.77 0 0 1 29.794 49.848 Q 29.081 54.278 28.6 56.3 A 36.52 36.52 0 0 1 28.571 55.455 Q 28.493 52.321 28.45 41 Q 28.411 30.609 28.097 25.712 A 45.979 45.979 0 0 0 27.9 23.4 Q 27.281 23.194 26.379 23.129 A 12.371 12.371 0 0 0 25.5 23.1 A 3.36 3.36 0 0 0 25.283 23.107 Q 23.85 23.2 21.9 24.5 A 82.077 82.077 0 0 1 21.973 25.973 Q 22.137 29.851 22.3 39 Q 22.75 55.875 24.044 65.269 A 63.997 63.997 0 0 0 25 70.7 A 4.787 4.787 0 0 0 25.367 70.806 Q 25.772 70.906 26.245 70.954 A 9.385 9.385 0 0 0 27.2 71 A 4.644 4.644 0 0 0 28.155 70.893 Q 29.12 70.69 30.3 70.1 A 2.904 2.904 0 0 0 30.636 69.686 Q 33.081 66.113 35.7 46 Q 36.7 38.3 39.15 32 Q 41.6 25.7 45.1 25.7 A 2.519 2.519 0 0 1 46.543 26.135 Q 47.567 26.828 48.196 28.621 A 13.107 13.107 0 0 1 48.65 30.3 Q 49.244 33.175 49.506 36.831 A 83.197 83.197 0 0 1 49.7 41.5 Q 49.8 48.1 50.15 54.7 A 44.988 44.988 0 0 0 50.246 56.101 Q 50.727 61.796 52.6 65.9 A 10.25 10.25 0 0 0 53.84 67.979 A 6.252 6.252 0 0 0 59 70.5 A 5.128 5.128 0 0 0 61.618 69.795 Z M 6.996 58.606 A 2036.901 2036.901 0 0 0 6.9 71.6 Q 5.695 72.886 4.715 73.138 A 1.86 1.86 0 0 1 4.25 73.2 A 4.406 4.406 0 0 1 3.342 73.111 A 3.186 3.186 0 0 1 2.3 72.7 Q 0 71.2 0 67.1 A 7776.617 7776.617 0 0 1 0.086 50.465 Q 0.294 17.463 0.7 10.8 A 114.844 114.844 0 0 1 0.905 7.968 Q 1.37 2.555 2.143 1.381 A 1.338 1.338 0 0 1 2.2 1.3 A 3.85 3.85 0 0 1 2.934 0.561 A 2.709 2.709 0 0 1 4.6 0 A 5.008 5.008 0 0 1 5.684 0.129 Q 6.711 0.358 7.98 0.99 A 15.859 15.859 0 0 1 8 1 Q 7.234 35.606 6.996 58.606 Z M 74.75 74.4 Q 72.9 74.4 70.8 73.05 Q 69.408 72.155 68.938 71.018 A 3.162 3.162 0 0 1 68.7 69.8 Q 68.7 68.289 70.092 66.873 A 8.893 8.893 0 0 1 70.9 66.15 A 9.045 9.045 0 0 1 72.634 65.05 A 6.374 6.374 0 0 1 75.4 64.4 A 6.752 6.752 0 0 1 77.402 64.685 A 5.607 5.607 0 0 1 79.3 65.7 Q 80.9 67 80.9 68.95 Q 80.9 70.9 78.75 72.65 A 10.543 10.543 0 0 1 77.468 73.554 Q 76.036 74.4 74.75 74.4 Z" vector-effect="non-scaling-stroke"/></g></svg>