<svg width="370.9" height="97.6" viewBox="0 0 370.9 97.6" xmlns="http://www.w3.org/2000/svg"><g id="svgGroup" stroke-linecap="round" fill-rule="evenodd" font-size="9pt" stroke="#000" stroke-width="0" fill="#ffffff" style="stroke:#000;stroke-width:0;fill:#ffffff"><path d="M 240.6 33.1 L 240.6 27.1 A 3.251 3.251 0 0 1 242.594 25.603 Q 243.301 25.4 244.2 25.4 A 7.341 7.341 0 0 1 245.492 25.503 Q 247.745 25.908 247.799 27.902 A 3.65 3.65 0 0 1 247.8 28 L 247.2 37.7 A 100.805 100.805 0 0 0 247.646 47.441 Q 248.129 52.411 249.137 56.701 A 54.744 54.744 0 0 0 249.9 59.6 A 50.61 50.61 0 0 0 250.909 62.697 Q 253.138 68.8 255.5 68.8 A 4.004 4.004 0 0 0 257.996 67.909 Q 258.736 67.338 259.4 66.4 A 12.185 12.185 0 0 0 260.563 64.326 Q 261.438 62.369 262 59.65 A 174.901 174.901 0 0 0 263.008 54.388 A 146.305 146.305 0 0 0 263.5 51.4 A 63.98 63.98 0 0 0 263.949 47.739 Q 264.188 45.225 264.3 42.3 A 756.718 756.718 0 0 0 264.431 38.625 Q 264.582 34.063 264.598 31.481 A 94.408 94.408 0 0 0 264.6 30.9 A 16.867 16.867 0 0 1 264.762 28.453 Q 265.463 23.7 269.2 23.7 Q 270.1 23.7 271 23.9 L 271 30.4 Q 271 35.7 272.4 51.6 Q 273.799 67.491 273.8 75.391 A 94.619 94.619 0 0 1 273.8 75.4 Q 273.8 85.481 270.984 90.569 A 11.588 11.588 0 0 1 269.4 92.8 A 12.764 12.764 0 0 1 264.648 95.974 Q 260.713 97.551 254.82 97.599 A 45.674 45.674 0 0 1 254.45 97.6 A 32.338 32.338 0 0 1 236.945 92.394 A 40.662 40.662 0 0 1 234.6 90.8 A 5.726 5.726 0 0 1 238.766 88.619 A 7.261 7.261 0 0 1 239.3 88.6 A 3.288 3.288 0 0 1 239.931 88.731 Q 241 89.05 242.8 90.1 A 45.596 45.596 0 0 0 246.604 92.13 Q 250.536 93.978 253.57 94.252 A 11.443 11.443 0 0 0 254.6 94.3 A 17.47 17.47 0 0 0 258.213 93.952 Q 260.38 93.493 261.984 92.43 A 8.832 8.832 0 0 0 264.5 89.9 Q 267.4 85.5 267.4 75.1 Q 267.4 72.6 266.9 57.1 A 3.756 3.756 0 0 0 266.867 57.205 Q 266.725 57.681 266.2 59.65 A 78.523 78.523 0 0 1 265.952 60.56 Q 265.608 61.791 265.388 62.379 A 5.107 5.107 0 0 1 265.3 62.6 A 33.444 33.444 0 0 0 265.135 62.994 Q 264.824 63.745 264.25 65.2 A 14.953 14.953 0 0 1 263.824 66.182 Q 263.275 67.325 262.7 67.9 A 23.409 23.409 0 0 1 262.061 68.514 Q 261.747 68.805 261.382 69.126 A 52.207 52.207 0 0 1 260.6 69.8 A 7.616 7.616 0 0 1 256.266 71.73 A 10.231 10.231 0 0 1 255.05 71.8 Q 251.7 71.8 249.7 70.9 Q 247.7 70 246.35 68.1 Q 245 66.2 243.95 64.1 A 14.917 14.917 0 0 1 243.171 62.204 Q 242.656 60.68 242.3 58.75 Q 241.7 55.5 241.35 52.8 Q 241.109 50.944 240.963 48.52 A 106.918 106.918 0 0 1 240.85 46.2 Q 240.704 42.394 240.653 39.826 A 183.754 183.754 0 0 1 240.65 39.7 Q 240.6 37.1 240.6 33.1 Z M 60.818 71.294 A 6.651 6.651 0 0 0 62.3 70.1 A 7.636 7.636 0 0 1 60.04 68.633 Q 58.897 67.567 58.069 65.971 A 15.513 15.513 0 0 1 56.95 63.1 Q 55.4 57.7 55.35 51.2 Q 55.3 44.7 55.1 38.4 A 37.053 37.053 0 0 0 55.013 36.763 Q 54.615 31.536 52.75 27.85 A 9.879 9.879 0 0 0 52.234 26.947 Q 50.947 24.955 48.949 24.149 A 8.081 8.081 0 0 0 45.9 23.6 A 13.863 13.863 0 0 0 45.668 23.602 A 11.593 11.593 0 0 0 39.6 25.35 A 16.389 16.389 0 0 0 38.12 26.39 A 13.293 13.293 0 0 0 35.2 29.55 A 17.667 17.667 0 0 0 34.327 31.053 Q 33.781 32.102 33.273 33.366 A 38.969 38.969 0 0 0 32.3 36.1 Q 31.488 38.663 30.949 40.815 A 48.946 48.946 0 0 0 30.4 43.25 A 117.313 117.313 0 0 0 30.34 43.558 Q 29.763 46.534 29.05 51 A 269.77 269.77 0 0 1 28.994 51.348 Q 28.281 55.778 27.8 57.8 A 36.52 36.52 0 0 1 27.771 56.955 Q 27.693 53.821 27.65 42.5 Q 27.611 32.109 27.297 27.212 A 45.979 45.979 0 0 0 27.1 24.9 Q 26.481 24.694 25.579 24.629 A 12.371 12.371 0 0 0 24.7 24.6 A 3.36 3.36 0 0 0 24.483 24.607 Q 23.05 24.7 21.1 26 A 82.077 82.077 0 0 1 21.173 27.473 Q 21.337 31.351 21.5 40.5 Q 21.95 57.375 23.244 66.769 A 63.997 63.997 0 0 0 24.2 72.2 A 4.787 4.787 0 0 0 24.567 72.306 Q 24.972 72.406 25.445 72.454 A 9.385 9.385 0 0 0 26.4 72.5 A 4.644 4.644 0 0 0 27.355 72.393 Q 28.32 72.19 29.5 71.6 A 2.904 2.904 0 0 0 29.836 71.186 Q 32.281 67.613 34.9 47.5 Q 35.9 39.8 38.35 33.5 Q 40.8 27.2 44.3 27.2 A 2.519 2.519 0 0 1 45.743 27.635 Q 46.767 28.328 47.396 30.121 A 13.107 13.107 0 0 1 47.85 31.8 Q 48.444 34.675 48.706 38.331 A 83.197 83.197 0 0 1 48.9 43 Q 49 49.6 49.35 56.2 A 44.988 44.988 0 0 0 49.446 57.601 Q 49.927 63.296 51.8 67.4 A 10.25 10.25 0 0 0 53.04 69.479 A 6.252 6.252 0 0 0 58.2 72 A 5.128 5.128 0 0 0 60.818 71.294 Z M 232.718 71.294 A 6.651 6.651 0 0 0 234.2 70.1 A 7.636 7.636 0 0 1 231.94 68.633 Q 230.797 67.567 229.969 65.971 A 15.513 15.513 0 0 1 228.85 63.1 Q 227.3 57.7 227.25 51.2 Q 227.2 44.7 227 38.4 A 37.053 37.053 0 0 0 226.913 36.763 Q 226.515 31.536 224.65 27.85 A 9.879 9.879 0 0 0 224.134 26.947 Q 222.847 24.955 220.849 24.149 A 8.081 8.081 0 0 0 217.8 23.6 A 13.863 13.863 0 0 0 217.568 23.602 A 11.593 11.593 0 0 0 211.5 25.35 A 16.389 16.389 0 0 0 210.02 26.39 A 13.293 13.293 0 0 0 207.1 29.55 A 17.667 17.667 0 0 0 206.227 31.053 Q 205.681 32.102 205.173 33.366 A 38.969 38.969 0 0 0 204.2 36.1 Q 203.388 38.663 202.849 40.815 A 48.946 48.946 0 0 0 202.3 43.25 A 117.313 117.313 0 0 0 202.24 43.558 Q 201.663 46.534 200.95 51 A 269.77 269.77 0 0 1 200.894 51.348 Q 200.181 55.778 199.7 57.8 A 36.52 36.52 0 0 1 199.671 56.955 Q 199.593 53.821 199.55 42.5 Q 199.511 32.109 199.197 27.212 A 45.979 45.979 0 0 0 199 24.9 Q 198.381 24.694 197.479 24.629 A 12.371 12.371 0 0 0 196.6 24.6 A 3.36 3.36 0 0 0 196.383 24.607 Q 194.95 24.7 193 26 A 82.077 82.077 0 0 1 193.073 27.473 Q 193.237 31.351 193.4 40.5 Q 193.85 57.375 195.144 66.769 A 63.997 63.997 0 0 0 196.1 72.2 A 4.787 4.787 0 0 0 196.467 72.306 Q 196.872 72.406 197.345 72.454 A 9.385 9.385 0 0 0 198.3 72.5 A 4.644 4.644 0 0 0 199.255 72.393 Q 200.22 72.19 201.4 71.6 A 2.904 2.904 0 0 0 201.736 71.186 Q 204.181 67.613 206.8 47.5 Q 207.8 39.8 210.25 33.5 Q 212.7 27.2 216.2 27.2 A 2.519 2.519 0 0 1 217.643 27.635 Q 218.667 28.328 219.296 30.121 A 13.107 13.107 0 0 1 219.75 31.8 Q 220.344 34.675 220.606 38.331 A 83.197 83.197 0 0 1 220.8 43 Q 220.9 49.6 221.25 56.2 A 44.988 44.988 0 0 0 221.346 57.601 Q 221.827 63.296 223.7 67.4 A 10.25 10.25 0 0 0 224.94 69.479 A 6.252 6.252 0 0 0 230.1 72 A 5.128 5.128 0 0 0 232.718 71.294 Z M 369.418 71.294 A 6.651 6.651 0 0 0 370.9 70.1 A 7.636 7.636 0 0 1 368.64 68.633 Q 367.497 67.567 366.669 65.971 A 15.513 15.513 0 0 1 365.55 63.1 Q 364 57.7 363.95 51.2 Q 363.9 44.7 363.7 38.4 A 37.053 37.053 0 0 0 363.613 36.763 Q 363.215 31.536 361.35 27.85 A 9.879 9.879 0 0 0 360.834 26.947 Q 359.547 24.955 357.549 24.149 A 8.081 8.081 0 0 0 354.5 23.6 A 13.863 13.863 0 0 0 354.268 23.602 A 11.593 11.593 0 0 0 348.2 25.35 A 16.389 16.389 0 0 0 346.72 26.39 A 13.293 13.293 0 0 0 343.8 29.55 A 17.667 17.667 0 0 0 342.927 31.053 Q 342.381 32.102 341.873 33.366 A 38.969 38.969 0 0 0 340.9 36.1 Q 340.088 38.663 339.549 40.815 A 48.946 48.946 0 0 0 339 43.25 A 117.313 117.313 0 0 0 338.94 43.558 Q 338.363 46.534 337.65 51 A 269.77 269.77 0 0 1 337.594 51.348 Q 336.881 55.778 336.4 57.8 A 36.52 36.52 0 0 1 336.371 56.955 Q 336.293 53.821 336.25 42.5 Q 336.211 32.109 335.897 27.212 A 45.979 45.979 0 0 0 335.7 24.9 Q 335.081 24.694 334.179 24.629 A 12.371 12.371 0 0 0 333.3 24.6 A 3.36 3.36 0 0 0 333.083 24.607 Q 331.65 24.7 329.7 26 A 82.077 82.077 0 0 1 329.773 27.473 Q 329.937 31.351 330.1 40.5 Q 330.55 57.375 331.844 66.769 A 63.997 63.997 0 0 0 332.8 72.2 A 4.787 4.787 0 0 0 333.167 72.306 Q 333.572 72.406 334.045 72.454 A 9.385 9.385 0 0 0 335 72.5 A 4.644 4.644 0 0 0 335.955 72.393 Q 336.92 72.19 338.1 71.6 A 2.904 2.904 0 0 0 338.436 71.186 Q 340.881 67.613 343.5 47.5 Q 344.5 39.8 346.95 33.5 Q 349.4 27.2 352.9 27.2 A 2.519 2.519 0 0 1 354.343 27.635 Q 355.367 28.328 355.996 30.121 A 13.107 13.107 0 0 1 356.45 31.8 Q 357.044 34.675 357.306 38.331 A 83.197 83.197 0 0 1 357.5 43 Q 357.6 49.6 357.95 56.2 A 44.988 44.988 0 0 0 358.046 57.601 Q 358.527 63.296 360.4 67.4 A 10.25 10.25 0 0 0 361.64 69.479 A 6.252 6.252 0 0 0 366.8 72 A 5.128 5.128 0 0 0 369.418 71.294 Z M 93.9 32.9 A 6.513 6.513 0 0 0 91.517 29.917 A 8.784 8.784 0 0 0 90.5 29.3 Q 88 28 84.3 28 A 12.118 12.118 0 0 0 77.579 30.048 A 14.682 14.682 0 0 0 77.35 30.2 Q 74.1 32.4 74.1 36.1 A 7.174 7.174 0 0 0 74.716 39.111 Q 75.47 40.766 77.15 41.95 Q 80.2 44.1 84.55 45.2 Q 88.9 46.3 93.3 47.55 A 18.915 18.915 0 0 1 98.245 49.72 A 16.691 16.691 0 0 1 100.75 51.65 A 9.471 9.471 0 0 1 103.752 57.977 A 12.948 12.948 0 0 1 103.8 59.1 A 12.788 12.788 0 0 1 102.987 63.761 Q 101.783 66.863 98.798 68.937 A 14.686 14.686 0 0 1 98.25 69.3 A 22.339 22.339 0 0 1 90.106 72.367 A 30.09 30.09 0 0 1 84.9 72.8 A 22.831 22.831 0 0 1 81.574 72.531 Q 78.118 72.019 73.55 70.531 A 81.754 81.754 0 0 1 72.85 70.3 Q 68.062 68.693 66.351 66.673 A 3.623 3.623 0 0 1 65.4 64.3 Q 65.4 61.84 69.339 61.708 A 13.724 13.724 0 0 1 69.8 61.7 Q 71.1 61.7 73.2 63.3 A 26.351 26.351 0 0 0 78.653 66.429 A 19.736 19.736 0 0 0 86.3 68 Q 89.708 68 92.219 66.925 A 10.999 10.999 0 0 0 92.5 66.8 A 9.539 9.539 0 0 0 95.083 65.039 Q 97.092 63.07 97.281 60.039 A 10.295 10.295 0 0 0 97.3 59.4 A 5.381 5.381 0 0 0 95.291 55.159 A 8.456 8.456 0 0 0 94.25 54.4 Q 91.2 52.5 86.85 51.4 Q 82.5 50.3 78.1 49 Q 73.7 47.7 70.65 44.65 A 10.302 10.302 0 0 1 67.629 37.802 A 13.777 13.777 0 0 1 67.6 36.9 A 11.168 11.168 0 0 1 71.516 28.244 A 15.975 15.975 0 0 1 73.1 27 Q 78.6 23.2 86.7 23.2 Q 92.2 23.2 96.65 26.05 Q 100.743 28.671 101.071 33.45 A 12.399 12.399 0 0 1 101.1 34.3 Q 101.1 37.773 97.285 37.896 A 8.855 8.855 0 0 1 97 37.9 Q 95.3 37.9 94.75 37.3 Q 94.276 36.782 94.173 35.557 A 7.997 7.997 0 0 1 94.15 35.15 Q 94.111 33.946 93.982 33.255 A 3.937 3.937 0 0 0 93.9 32.9 Z M 122.9 8.9 L 122.3 23.9 Q 122.461 23.981 123.078 23.996 A 12.797 12.797 0 0 0 123.4 24 L 130.6 23.7 A 38.694 38.694 0 0 1 133.051 23.771 Q 136.637 24 137.819 24.969 A 1.424 1.424 0 0 1 138.4 26.1 Q 138.4 29.345 135.849 30.04 A 4.69 4.69 0 0 1 135.6 30.1 A 10.859 10.859 0 0 1 134.376 30.305 Q 133.534 30.4 132.55 30.4 Q 130.8 30.4 128.05 29.95 Q 125.3 29.5 124.1 29.5 A 22.917 22.917 0 0 0 123.613 29.505 Q 122.953 29.519 122.625 29.574 A 1.664 1.664 0 0 0 122.5 29.6 Q 122.2 32.5 122.2 35.35 Q 122.2 38.131 122.343 42.245 A 355.715 355.715 0 0 0 122.35 42.45 A 101.285 101.285 0 0 0 122.533 45.87 Q 122.665 47.771 122.873 49.925 A 201.109 201.109 0 0 0 123.15 52.6 A 34.695 34.695 0 0 0 124.057 57.608 Q 124.774 60.338 125.925 62.604 A 21.555 21.555 0 0 0 126 62.75 A 11.696 11.696 0 0 0 127.214 64.659 Q 128 65.647 128.903 66.218 A 4.951 4.951 0 0 0 131.6 67 A 5.355 5.355 0 0 0 132.959 66.81 Q 133.599 66.642 134.304 66.325 A 13.517 13.517 0 0 0 135.6 65.65 Q 137.387 64.601 138.54 64.367 A 3.084 3.084 0 0 1 139.15 64.3 Q 140.4 64.3 141.35 64.85 Q 142.3 65.4 142.3 66.1 Q 142.3 68.2 138.05 70.15 A 28.628 28.628 0 0 1 135.516 71.178 Q 134.2 71.636 133.029 71.866 A 11.576 11.576 0 0 1 130.8 72.1 Q 119.8 72.1 117.1 51.3 Q 116.363 45.775 115.966 32.956 A 625.637 625.637 0 0 1 115.9 30.7 Q 114.3 31 112.5 31 A 14.398 14.398 0 0 1 110.431 30.863 Q 107.911 30.495 106.683 29.148 A 4.075 4.075 0 0 1 106.4 28.8 A 3.016 3.016 0 0 1 106.656 27.539 Q 106.988 26.808 107.75 26.3 Q 109.1 25.4 110.7 25.15 Q 112.3 24.9 115.9 24.7 Q 116.2 22 116.25 17.75 A 470.688 470.688 0 0 1 116.295 14.738 Q 116.316 13.557 116.342 12.497 A 237.344 237.344 0 0 1 116.4 10.5 A 47.865 47.865 0 0 1 116.607 7.439 Q 117.072 2.915 118.379 1.246 A 3.103 3.103 0 0 1 118.8 0.8 A 3.41 3.41 0 0 1 119.582 0.269 A 2.658 2.658 0 0 1 120.75 0 A 9.416 9.416 0 0 1 121.621 0.038 Q 122.067 0.08 122.458 0.166 A 5.51 5.51 0 0 1 122.6 0.2 A 1317.459 1317.459 0 0 1 122.702 2.7 Q 122.884 7.286 122.899 8.683 A 21.15 21.15 0 0 1 122.9 8.9 Z M 179.8 44.1 L 179.3 55.6 A 59.551 59.551 0 0 0 179.41 59.365 Q 179.764 64.931 181.261 67.24 A 5.466 5.466 0 0 0 181.3 67.3 A 4.735 4.735 0 0 0 182.184 68.397 A 3.489 3.489 0 0 0 184.6 69.3 A 3.419 3.419 0 0 0 185 69.274 Q 185.527 69.211 186.3 69 Q 187 68.8 187.622 68.8 A 3.243 3.243 0 0 1 189.8 69.6 A 3.675 3.675 0 0 1 187.603 72.272 Q 185.864 73.1 182.8 73.1 A 7.837 7.837 0 0 1 180.611 72.815 Q 178.126 72.093 177.116 69.54 A 7.406 7.406 0 0 1 177.1 69.5 A 19.765 19.765 0 0 1 176.305 67.083 Q 175.988 65.878 175.752 64.487 A 39.409 39.409 0 0 1 175.5 62.75 A 232.185 232.185 0 0 0 175.277 60.992 Q 174.93 58.348 174.7 57.2 A 74.197 74.197 0 0 1 171.5 62.755 Q 166.687 70.27 162.1 72.3 A 15.445 15.445 0 0 1 158.124 73.46 A 20.748 20.748 0 0 1 154.9 73.7 A 6.661 6.661 0 0 1 149.582 71.241 A 9.812 9.812 0 0 1 148.55 69.75 Q 146.394 65.965 146.304 58.829 A 49.816 49.816 0 0 1 146.3 58.2 A 51.777 51.777 0 0 1 147.374 47.918 A 64.146 64.146 0 0 1 148.8 42.25 A 44.137 44.137 0 0 1 152.047 34.221 A 35.036 35.036 0 0 1 156.1 28.15 Q 159.61 23.945 163.601 22.815 A 10.956 10.956 0 0 1 166.6 22.4 Q 174.8 22.4 177.5 29.2 A 28.954 28.954 0 0 1 178.968 34.346 Q 179.475 36.954 179.673 40.006 A 63.269 63.269 0 0 1 179.8 44.1 Z M 316.5 44.1 L 316 55.6 A 59.551 59.551 0 0 0 316.11 59.365 Q 316.464 64.931 317.961 67.24 A 5.466 5.466 0 0 0 318 67.3 A 4.735 4.735 0 0 0 318.884 68.397 A 3.489 3.489 0 0 0 321.3 69.3 A 3.419 3.419 0 0 0 321.7 69.274 Q 322.227 69.211 323 69 Q 323.7 68.8 324.322 68.8 A 3.243 3.243 0 0 1 326.5 69.6 A 3.675 3.675 0 0 1 324.303 72.272 Q 322.564 73.1 319.5 73.1 A 7.837 7.837 0 0 1 317.311 72.815 Q 314.826 72.093 313.816 69.54 A 7.406 7.406 0 0 1 313.8 69.5 A 19.765 19.765 0 0 1 313.005 67.083 Q 312.688 65.878 312.452 64.487 A 39.409 39.409 0 0 1 312.2 62.75 A 232.185 232.185 0 0 0 311.977 60.992 Q 311.63 58.348 311.4 57.2 A 74.197 74.197 0 0 1 308.2 62.755 Q 303.387 70.27 298.8 72.3 A 15.445 15.445 0 0 1 294.824 73.46 A 20.748 20.748 0 0 1 291.6 73.7 A 6.661 6.661 0 0 1 286.282 71.241 A 9.812 9.812 0 0 1 285.25 69.75 Q 283.094 65.965 283.004 58.829 A 49.816 49.816 0 0 1 283 58.2 A 51.777 51.777 0 0 1 284.074 47.918 A 64.146 64.146 0 0 1 285.5 42.25 A 44.137 44.137 0 0 1 288.747 34.221 A 35.036 35.036 0 0 1 292.8 28.15 Q 296.31 23.945 300.301 22.815 A 10.956 10.956 0 0 1 303.3 22.4 Q 311.5 22.4 314.2 29.2 A 28.954 28.954 0 0 1 315.668 34.346 Q 316.175 36.954 316.373 40.006 A 63.269 63.269 0 0 1 316.5 44.1 Z M 6.996 60.106 A 2036.901 2036.901 0 0 0 6.9 73.1 Q 5.695 74.386 4.715 74.638 A 1.86 1.86 0 0 1 4.25 74.7 A 4.406 4.406 0 0 1 3.342 74.611 A 3.186 3.186 0 0 1 2.3 74.2 Q 0 72.7 0 68.6 A 7776.617 7776.617 0 0 1 0.086 51.965 Q 0.294 18.963 0.7 12.3 A 114.844 114.844 0 0 1 0.905 9.468 Q 1.37 4.055 2.143 2.881 A 1.338 1.338 0 0 1 2.2 2.8 A 3.85 3.85 0 0 1 2.934 2.061 A 2.709 2.709 0 0 1 4.6 1.5 A 5.008 5.008 0 0 1 5.684 1.629 Q 6.711 1.858 7.98 2.49 A 15.859 15.859 0 0 1 8 2.5 Q 7.234 37.106 6.996 60.106 Z M 155.3 40.85 A 105.792 105.792 0 0 0 153.854 47.269 A 85.917 85.917 0 0 0 153.2 51.15 A 76.151 76.151 0 0 0 152.722 55.183 Q 152.555 57.026 152.514 58.674 A 42.724 42.724 0 0 0 152.5 59.75 A 15.248 15.248 0 0 0 152.797 62.83 A 11.298 11.298 0 0 0 154.05 66.2 A 6.948 6.948 0 0 0 155.026 67.535 A 4.102 4.102 0 0 0 158.1 68.9 Q 162.566 68.9 166.758 61.925 A 43.097 43.097 0 0 0 168.5 58.7 A 55.504 55.504 0 0 0 171.737 50.644 Q 173.156 46.042 173.433 41.76 A 31.9 31.9 0 0 0 173.5 39.7 A 17.777 17.777 0 0 0 173.014 35.437 A 12.969 12.969 0 0 0 170.5 30.3 A 6.419 6.419 0 0 0 165.848 27.921 A 8.352 8.352 0 0 0 165.25 27.9 A 5.796 5.796 0 0 0 161.829 29.054 Q 160.956 29.676 160.137 30.634 A 13.958 13.958 0 0 0 159.35 31.65 A 24.2 24.2 0 0 0 156.825 36.26 A 33.1 33.1 0 0 0 155.3 40.85 Z M 292 40.85 A 105.792 105.792 0 0 0 290.554 47.269 A 85.917 85.917 0 0 0 289.9 51.15 A 76.151 76.151 0 0 0 289.422 55.183 Q 289.255 57.026 289.214 58.674 A 42.724 42.724 0 0 0 289.2 59.75 A 15.248 15.248 0 0 0 289.497 62.83 A 11.298 11.298 0 0 0 290.75 66.2 A 6.948 6.948 0 0 0 291.726 67.535 A 4.102 4.102 0 0 0 294.8 68.9 Q 299.266 68.9 303.458 61.925 A 43.097 43.097 0 0 0 305.2 58.7 A 55.504 55.504 0 0 0 308.437 50.644 Q 309.856 46.042 310.133 41.76 A 31.9 31.9 0 0 0 310.2 39.7 A 17.777 17.777 0 0 0 309.714 35.437 A 12.969 12.969 0 0 0 307.2 30.3 A 6.419 6.419 0 0 0 302.548 27.921 A 8.352 8.352 0 0 0 301.95 27.9 A 5.796 5.796 0 0 0 298.529 29.054 Q 297.656 29.676 296.837 30.634 A 13.958 13.958 0 0 0 296.05 31.65 A 24.2 24.2 0 0 0 293.525 36.26 A 33.1 33.1 0 0 0 292 40.85 Z"/></g></svg>